<svg width="15" height="14" viewBox="0 0 13 12" fill="current" xmlns="http://www.w3.org/2000/svg">
<path d="M13.6668 0.5L12.5535 1.61333L11.4468 0.5L10.3335 1.61333L9.22016 0.5L8.1135 1.61333L7.00016 0.5L5.88683 1.61333L4.78016 0.5L3.66683 1.61333L2.5535 0.5L1.44683 1.61333L0.333496 0.5V11.1667C0.333496 11.9 0.933496 12.5 1.66683 12.5H12.3335C13.0668 12.5 13.6668 11.9 13.6668 11.1667V0.5ZM6.3335 11.1667H1.66683V7.16667H6.3335V11.1667ZM12.3335 11.1667H7.66683V9.83333H12.3335V11.1667ZM12.3335 8.5H7.66683V7.16667H12.3335V8.5ZM12.3335 5.83333H1.66683V3.83333H12.3335V5.83333Z" fill="current"/>
</svg>
